<?xml version="1.0" encoding="UTF-8" standalone="no"?><!DOCTYPE svg PUBLIC "-//W3C//DTD SVG 1.1//EN" "http://www.w3.org/Graphics/SVG/1.1/DTD/svg11.dtd"><svg width="100%" height="100%" viewBox="0 0 4000 4000" version="1.1" xmlns="http://www.w3.org/2000/svg" xmlns:xlink="http://www.w3.org/1999/xlink" xml:space="preserve" xmlns:serif="http://www.serif.com/" style="fill-rule:evenodd;clip-rule:evenodd;stroke-miterlimit:10;"><rect id="rect3006" x="0" y="0" width="4000" height="4000" style="fill:#fa4139;"/><g><g><path d="M1306.67,906.415c0,-86.237 -70.014,-156.25 -156.25,-156.25l-300.834,0c-86.236,0 -156.25,70.013 -156.25,156.25l0,898.281c0,86.237 70.014,156.25 156.25,156.25l300.834,0c86.236,0 156.25,-70.013 156.25,-156.25l0,-898.281Z" style="fill:none;stroke:#fff;stroke-width:27.6px;"/><rect x="770.46" y="857.452" width="459.309" height="275.586" style="fill:none;stroke:#fff;stroke-width:27.6px;"/><circle cx="1000.23" cy="1583.37" r="130.08" style="fill:none;stroke:#fff;stroke-width:27.6px;"/><circle cx="1130.31" cy="1881.75" r="25.556" style="fill:none;stroke:#fff;stroke-width:27.6px;"/><circle cx="1000.23" cy="1881.75" r="25.556" style="fill:none;stroke:#fff;stroke-width:27.6px;"/><circle cx="870.15" cy="1881.75" r="25.556" style="fill:none;stroke:#fff;stroke-width:27.6px;"/><rect x="1127.55" y="1255.29" width="53.644" height="72.753" style="fill:none;stroke:#fff;stroke-width:27.6px;"/><rect x="973.293" y="1255.29" width="53.644" height="72.753" style="fill:none;stroke:#fff;stroke-width:27.6px;"/><rect x="819.039" y="1255.29" width="53.644" height="72.753" style="fill:none;stroke:#fff;stroke-width:27.6px;"/><path d="M767.237,1592.58l79.43,0" style="fill:none;stroke:#fff;stroke-width:27.6px;"/><path d="M1153.79,1592.58l79.199,0" style="fill:none;stroke:#fff;stroke-width:27.6px;"/><path d="M750.661,1400.11l79.199,0l64.234,64.234" style="fill:none;stroke:#fff;stroke-width:27.6px;"/><path d="M1249.8,1766.86l-79.43,0l-64.004,-64.234" style="fill:none;stroke:#fff;stroke-width:27.6px;"/><path d="M1249.8,1400.11l-79.43,0l-64.004,64.234" style="fill:none;stroke:#fff;stroke-width:27.6px;"/><path d="M750.661,1766.86l79.199,0l64.234,-64.234" style="fill:none;stroke:#fff;stroke-width:27.6px;"/></g><g><path d="M3306.67,906.415c0,-86.237 -70.014,-156.25 -156.25,-156.25l-300.834,0c-86.236,0 -156.25,70.013 -156.25,156.25l0,898.281c0,86.237 70.014,156.25 156.25,156.25l300.834,0c86.236,0 156.25,-70.013 156.25,-156.25l0,-898.281Z" style="fill:none;stroke:#fff;stroke-width:27.6px;"/><rect x="2770.46" y="857.452" width="459.309" height="275.586" style="fill:none;stroke:#fff;stroke-width:27.6px;"/><circle cx="3000.23" cy="1583.37" r="130.08" style="fill:none;stroke:#fff;stroke-width:27.6px;"/><circle cx="3130.31" cy="1881.75" r="25.556" style="fill:none;stroke:#fff;stroke-width:27.6px;"/><circle cx="3000.23" cy="1881.75" r="25.556" style="fill:none;stroke:#fff;stroke-width:27.6px;"/><circle cx="2870.15" cy="1881.75" r="25.556" style="fill:none;stroke:#fff;stroke-width:27.6px;"/><rect x="3127.55" y="1255.29" width="53.644" height="72.753" style="fill:none;stroke:#fff;stroke-width:27.6px;"/><rect x="2973.29" y="1255.29" width="53.644" height="72.753" style="fill:none;stroke:#fff;stroke-width:27.6px;"/><rect x="2819.04" y="1255.29" width="53.644" height="72.753" style="fill:none;stroke:#fff;stroke-width:27.6px;"/><path d="M2767.24,1592.58l79.43,0" style="fill:none;stroke:#fff;stroke-width:27.6px;"/><path d="M3153.79,1592.58l79.199,0" style="fill:none;stroke:#fff;stroke-width:27.6px;"/><path d="M2750.66,1400.11l79.199,0l64.234,64.234" style="fill:none;stroke:#fff;stroke-width:27.6px;"/><path d="M3249.8,1766.86l-79.43,0l-64.004,-64.234" style="fill:none;stroke:#fff;stroke-width:27.6px;"/><path d="M3249.8,1400.11l-79.43,0l-64.004,64.234" style="fill:none;stroke:#fff;stroke-width:27.6px;"/><path d="M2750.66,1766.86l79.199,0l64.234,-64.234" style="fill:none;stroke:#fff;stroke-width:27.6px;"/></g><g><path d="M2293.33,2195.3c0,-86.237 -70.013,-156.25 -156.25,-156.25l-300.833,0c-86.237,0 -156.25,70.013 -156.25,156.25l0,898.281c0,86.237 70.013,156.25 156.25,156.25l300.833,0c86.237,0 156.25,-70.013 156.25,-156.25l0,-898.281Z" style="fill:none;stroke:#fff;stroke-width:27.6px;"/><rect x="1757.13" y="2146.34" width="459.309" height="275.586" style="fill:none;stroke:#fff;stroke-width:27.6px;"/><circle cx="1986.9" cy="2872.26" r="130.08" style="fill:none;stroke:#fff;stroke-width:27.6px;"/><circle cx="2116.98" cy="3170.64" r="25.556" style="fill:none;stroke:#fff;stroke-width:27.6px;"/><circle cx="1986.9" cy="3170.64" r="25.556" style="fill:none;stroke:#fff;stroke-width:27.6px;"/><circle cx="1856.82" cy="3170.64" r="25.556" style="fill:none;stroke:#fff;stroke-width:27.6px;"/><rect x="2114.21" y="2544.18" width="53.644" height="72.753" style="fill:none;stroke:#fff;stroke-width:27.6px;"/><rect x="1959.96" y="2544.18" width="53.644" height="72.753" style="fill:none;stroke:#fff;stroke-width:27.6px;"/><rect x="1805.71" y="2544.18" width="53.644" height="72.753" style="fill:none;stroke:#fff;stroke-width:27.6px;"/><path d="M1753.9,2881.47l79.429,0" style="fill:none;stroke:#fff;stroke-width:27.6px;"/><path d="M2140.46,2881.47l79.2,0" style="fill:none;stroke:#fff;stroke-width:27.6px;"/><path d="M1737.33,2688.99l79.2,0l64.234,64.234" style="fill:none;stroke:#fff;stroke-width:27.6px;"/><path d="M2236.47,3055.75l-79.429,0l-64.004,-64.234" style="fill:none;stroke:#fff;stroke-width:27.6px;"/><path d="M2236.47,2688.99l-79.429,0l-64.004,64.234" style="fill:none;stroke:#fff;stroke-width:27.6px;"/><path d="M1737.33,3055.75l79.2,0l64.234,-64.234" style="fill:none;stroke:#fff;stroke-width:27.6px;"/></g></g></svg>